:SAMPLES-PER-SECOND 30
:FRAME-RANGE 1-3535
:FULLY-SPECIFIED
:DEGREES
221
root  0.769131 38.5837 41.8881 -126.386 -77.1432 128.834
RightUpLeg  -4.7186 12.1249 3.59005
RightLeg  23.3612 -0.470247 -0.449448
RightFoot  -17.556 -0.836054 -13.1547
RightToes  5.38503e-012 1.26228e-014 -6.01869e-014
Spine  -3.70365 -1.782 -1.48902
Spine1  6.37995 -2.15319 2.66547
HEad  4.96239 -37.3913 0.501022
LeftShoulder1  0.734409 0.673614 -21.7956
LeftArm  14.418 26.5953 -51.7964
LeftForeArm  19.0225 -21.0775 -4.78085
LeftHand  -0.0420547 5.10406 9.91491
RightShoulder  0.650838 -1.34954 27.0115
RightArm  -3.62255 3.1533 58.3652
RightForeArm  31.5166 17.4269 6.3007
RightHand  -0.211854 -4.09419 -18.0922
LeftUpLeg  -22.2445 -24.7889 7.77082
LeftLeg  38.6795 -1.66803 -1.06095
LeftFoot  -4.42878 0.816906 -13.0427
LeftToes  8.9788e-011 3.29689e-010 2.1201e-011
222
root  0.0950789 38.6636 42.0702 -135.544 -74.2214 138.336
RightUpLeg  -3.65048 14.1166 2.42521
RightLeg  22.7385 1.06667 0.267591
RightFoot  -17.9591 -0.883285 -13.118
RightToes  5.38503e-012 1.26228e-014 -6.01869e-014
Spine  -3.57663 -1.70847 -1.89977
Spine1  6.08365 -2.2848 3.04609
HEad  5.14341 -35.2788 -1.26561
LeftShoulder1  0.746822 0.669244 -22.2466
LeftArm  13.4181 27.2182 -52.1379
LeftForeArm  21.0932 -19.3531 -5.80657
LeftHand  -0.0235784 5.3321 9.68463
RightShoulder  0.762084 -1.0375 27.4121
RightArm  -3.00502 5.61056 58.9422
RightForeArm  32.5488 16.2142 7.13975
RightHand  -0.207091 -4.15149 -18.493
LeftUpLeg  -23.1089 -25.5069 7.44342
LeftLeg  32.467 -3.8425 -2.28373
LeftFoot  -4.85094 0.735387 -12.4202
LeftToes  8.9788e-011 3.29689e-010 2.1201e-011
223
root  -0.586721 38.7213 42.1883 -140.155 -71.7032 143.187
RightUpLeg  -2.5677 15.8 1.39183
RightLeg  22.1896 2.20726 0.770255
RightFoot  -18.2803 -0.912366 -12.9523
RightToes  5.38503e-012 1.26228e-014 -6.01869e-014
Spine  -3.28453 -1.64441 -2.26452
Spine1  5.74458 -2.36425 3.23585
HEad  5.51281 -34.0021 -2.69595
LeftShoulder1  0.708388 0.845781 -22.7448
LeftArm  12.9536 27.1365 -52.0133
LeftForeArm  23.4896 -17.8272 -6.86472
LeftHand  -0.0236807 5.3325 9.45041
RightShoulder  0.818633 -0.902077 27.9128
RightArm  -5.16649 7.42741 59.2836
RightForeArm  33.6099 14.4425 8.03349
RightHand  -0.192701 -4.3238 -19.9758
LeftUpLeg  -23.8631 -23.5667 6.01757
LeftLeg  26.0815 -4.59168 -2.11
LeftFoot  -5.12865 0.77764 -13.7119
LeftToes  8.9788e-011 3.29689e-010 2.1201e-011
224
root  -1.29545 38.7449 42.2277 -142.234 -69.7568 145.423
RightUpLeg  -1.42284 17.0658 0.530667
RightLeg  21.7139 2.82246 1.02141
RightFoot  -18.5576 -0.975672 -13.4183
RightToes  5.38503e-012 1.26228e-014 -6.01869e-014
Spine  -3.17965 -1.5681 -2.69282
Spine1  5.62197 -2.34203 3.14993
HEad  5.97868 -33.2026 -3.79306
LeftShoulder1  0.711082 0.860034 -23.0388
LeftArm  12.7501 27.0843 -51.8749
LeftForeArm  25.1604 -17.0347 -7.42288
LeftHand  -0.0119345 5.4929 9.10343
RightShoulder  0.87111 -0.775945 28.3213
RightArm  -8.96112 8.40177 59.406
RightForeArm  34.9853 12.67 8.50527
RightHand  -0.127536 -4.74684 -21.462
LeftUpLeg  -24.3996 -19.766 3.41011
LeftLeg  19.6076 -4.32058 -1.38082
LeftFoot  -6.02648 0.733175 -14.9509
LeftToes  8.9788e-011 3.29689e-010 2.1201e-011
225
root  -2.04903 38.706 42.1912 -143.022 -68.3111 146.199
RightUpLeg  -0.19733 17.5299 -0.200656
RightLeg  21.7036 2.99219 1.09717
RightFoot  -19.0304 -1.10489 -14.4454
RightToes  5.38503e-012 1.26228e-014 -6.01869e-014
Spine  -3.26266 -1.5358 -3.36188
Spine1  5.81387 -2.29844 2.90142
HEad  6.66025 -32.6437 -4.4584
LeftShoulder1  0.662783 1.03652 -23.179
LeftArm  13.8749 27.1422 -51.5735
LeftForeArm  24.2494 -17.4245 -7.2069
LeftHand  -0.012289 5.48887 9.07572
RightShoulder  0.902385 -0.70169 28.5579
RightArm  -12.303 8.75921 59.3016
RightForeArm  36.4933 11.3583 8.5415
RightHand  -0.120459 -4.80408 -22.2667
LeftUpLeg  -24.2241 -11.7005 -1.90617
LeftLeg  13.2016 -7.90861 -0.336502
LeftFoot  -6.14516 0.753217 -15.7086
LeftToes  8.9788e-011 3.29689e-010 2.1201e-011
226
root  -2.85818 38.5946 42.076 -144.328 -67.2411 147.453
RightUpLeg  0.990885 17.9213 -0.343253
RightLeg  22.2042 3.30514 1.26925
RightFoot  -19.7332 -1.21447 -14.6497
RightToes  5.38503e-012 1.26228e-014 -6.01869e-014
Spine  -3.3786 -1.30834 -3.59639
Spine1  6.00308 -1.98968 2.42693
HEad  7.37331 -32.5424 -4.54487
LeftShoulder1  0.545222 1.44288 -23.244
LeftArm  16.2079 26.9941 -51.0041
LeftForeArm  22.0745 -18.5995 -6.45393
LeftHand  -0.0441741 5.05349 8.85243
RightShoulder  0.911947 -0.677685 28.6098
RightArm  -12.9992 8.36014 58.8787
RightForeArm  35.6765 11.2058 8.50282
RightHand  -0.112372 -4.86221 -23.0702
LeftUpLeg  -24.603 -6.3874 -5.63316
LeftLeg  7.4829 -9.76945 -0.315132
LeftFoot  -5.52318 0.865309 -16.2868
LeftToes  8.9788e-011 3.29689e-010 2.1201e-011
227
root  -3.72983 38.5029 41.8497 -146.729 -66.5895 149.619
RightUpLeg  2.57647 18.4205 0.487014
RightLeg  22.8414 3.51422 1.40975
RightFoot  -19.7514 -1.22145 -14.7099
RightToes  5.38503e-012 1.26228e-014 -6.01869e-014
Spine  -3.73385 -1.08772 -3.24976
Spine1  6.70707 -1.62052 1.62622
HEad  7.77066 -32.5417 -3.73546
LeftShoulder1  0.486268 1.64924 -23.3377
LeftArm  18.5609 26.8649 -49.9873
LeftForeArm  19.8645 -20.4443 -5.22536
LeftHand  -0.0745788 4.57931 8.22117
RightShoulder  0.933972 -0.609959 28.5604
RightArm  -13.7867 7.74414 58.5561
RightForeArm  34.9359 11.1886 8.38053
RightHand  -0.130669 -4.77535 -23.2876
LeftUpLeg  -24.9847 -7.20563 -6.81373
LeftLeg  3.32982 -10.5132 0.371038
LeftFoot  -6.12742 0.696739 -14.4361
LeftToes  8.9788e-011 3.29689e-010 2.1201e-011
